<svg width="123" height="81" viewBox="0 0 123 81" fill="none" xmlns="http://www.w3.org/2000/svg">
<path d="M3 3C7.56397 11.5088 13.5962 18.7535 19.7809 25.8814C22.531 29.0509 25.2153 31.8662 28.4897 34.3021C33.7194 38.1926 39.1034 41.8705 44.586 45.3139C50.5491 49.059 56.7897 52.5737 63.1341 55.4678C68.1755 57.7675 73.3939 60.1431 78.689 61.6127C87.54 64.069 96.5057 66.1328 105.405 68.3703C109.57 69.4175 113.88 69.854 118.11 70.4011C118.562 70.4596 119.039 70.4599 119.495 70.4361C119.675 70.4267 120.113 70.032 119.973 70.156C119.074 70.9468 117.193 71.0696 116.151 71.3289C110.595 72.712 104.928 73.6106 99.291 74.4977C93.3665 75.4299 87.4129 76.2724 81.4593 76.9486C79.6263 77.1568 77.78 77.1954 75.9506 77.4388C74.6735 77.6087 73.4239 77.9277 72.1295 77.894C70.9853 77.8642 69.9059 77.8077 68.7702 77.8415C68.4627 77.8506 68.1304 78.0142 68.6747 77.999C71.8673 77.9101 75.0236 76.6233 78.1 75.8457C83.399 74.5062 88.8193 73.5499 94.244 73.1496C101.506 72.6139 108.602 71.1305 115.769 69.8409C116.767 69.6613 117.744 69.6876 118.747 69.6483C119.248 69.6286 117.96 68.9533 117.521 68.6854C110.637 64.485 105.031 58.2979 99.4661 52.2641C95.4199 47.877 91.7217 43.5125 88.6238 38.2236C88.1068 37.341 86.8248 34.7228 86.8248 35.7727" stroke="#D8EB03" stroke-width="6" stroke-linecap="round"/>
</svg>
