<svg width="118" height="70" viewBox="0 0 118 70" fill="none" xmlns="http://www.w3.org/2000/svg">
<path d="M114.405 3.65002C99.0045 14.1602 83.5326 24.8147 67.3278 34.0637C62.8851 36.5994 57.9595 37.9818 53.3129 40.0839C46.8507 43.0072 40.3506 45.8225 33.8799 48.7288C27.5844 51.5565 21.0562 53.2853 14.7118 55.8807C13.6991 56.295 7.2998 59.329 6.5726 58.6018C5.45267 57.4819 17.8454 43.3531 19.239 41.625C21.2049 39.1872 23.139 36.6898 25.0183 34.1841C25.3413 33.7535 26.8003 32.1606 26.8003 31.6316C26.8003 31.48 25.9238 32.3141 25.8852 32.354C24.3144 33.9809 22.8961 35.7435 21.3099 37.3628C17.1912 41.5672 13.425 46.1784 10.0402 50.9924C8.3729 53.3636 6.81166 55.8303 4.93513 58.0479C4.16225 58.9613 2.54071 60.4319 4.59801 60.4319C19.9153 60.4319 34.6186 65.4518 49.8212 66.5002" stroke="#0040E3" stroke-width="6" stroke-linecap="round"/>
</svg>
