<svg width="127" height="74" viewBox="0 0 127 74" fill="none" xmlns="http://www.w3.org/2000/svg">
<path d="M124 71C119.28 63.2853 113.042 56.7168 106.645 50.2542C103.801 47.3805 101.025 44.828 97.6388 42.6194C92.2303 39.092 86.6623 35.7574 80.9923 32.6354C74.8253 29.2398 68.3713 26.0532 61.81 23.4292C56.5963 21.3441 51.1995 19.1902 45.7233 17.8578C36.5698 15.6307 27.2975 13.7596 18.0943 11.7309C13.7871 10.7815 9.32878 10.3857 4.95485 9.88969C4.48693 9.83662 3.99336 9.83633 3.52236 9.85795C3.33597 9.8665 2.88268 10.2243 3.0284 10.1119C3.95805 9.39489 5.90264 9.28355 6.98011 9.04843C12.7265 7.79449 18.5873 6.9797 24.417 6.17545C30.5441 5.33019 36.7012 4.56632 42.8583 3.95326C44.754 3.76452 46.6634 3.7295 48.5553 3.50882C49.8761 3.35476 51.1685 3.06555 52.5071 3.09613C53.6905 3.12317 54.8067 3.17435 55.9813 3.14375C56.2992 3.13546 56.6429 2.98716 56.0801 3.0009C52.7783 3.08148 49.514 4.24819 46.3325 4.95325C40.8523 6.16771 35.2467 7.03477 29.6365 7.39766C22.1267 7.88343 14.7877 9.22834 7.37527 10.3976C6.34326 10.5604 5.33295 10.5365 4.29624 10.5722C3.77723 10.5901 5.10996 11.2023 5.56407 11.4452C12.6834 15.2536 18.4805 20.8633 24.2359 26.3339C28.4205 30.3115 32.2451 34.2687 35.4489 39.0639C35.9835 39.8642 37.3094 42.238 37.3094 41.2861" stroke="#DF0000" stroke-width="6" stroke-linecap="round"/>
</svg>
