<svg width="125" height="76" viewBox="0 0 125 76" fill="none" xmlns="http://www.w3.org/2000/svg">
<path d="M3.97363 72.4468C8.55656 64.6765 14.6138 58.0606 20.8242 51.5514C23.5858 48.657 26.2812 46.0861 29.5692 43.8616C34.8206 40.3087 40.2269 36.9501 45.7323 33.8056C51.7202 30.3855 57.9867 27.1759 64.3575 24.533C69.4198 22.4329 74.6599 20.2634 79.977 18.9214C88.8647 16.6783 97.8677 14.7937 106.804 12.7504C110.986 11.7941 115.315 11.3955 119.561 10.8958C120.016 10.8424 120.495 10.8421 120.952 10.8639C121.133 10.8725 121.573 11.2329 121.432 11.1197C120.529 10.3975 118.641 10.2853 117.595 10.0485C112.015 8.78554 106.325 7.96487 100.665 7.15483C94.7154 6.30347 88.7371 5.5341 82.7588 4.91662C80.9182 4.72651 79.0642 4.69124 77.2272 4.46897C75.9448 4.3138 74.69 4.02251 73.3903 4.05331C72.2412 4.08054 71.1574 4.13209 70.017 4.10127C69.7082 4.09292 69.3746 3.94355 69.921 3.95739C73.1269 4.03855 76.2964 5.21367 79.3855 5.92382C84.7065 7.14703 90.1494 8.02034 95.5966 8.38585C102.888 8.87513 110.014 10.2297 117.211 11.4074C118.213 11.5714 119.194 11.5474 120.201 11.5833C120.705 11.6013 119.411 12.2179 118.97 12.4626C112.057 16.2985 106.429 21.9485 100.84 27.4586C96.7773 31.4649 93.0638 35.4506 89.9531 40.2804C89.4339 41.0865 88.1465 43.4774 88.1465 42.5186" stroke="#0040E3" stroke-width="6" stroke-linecap="round"/>
</svg>
